<svg xmlns="http://www.w3.org/2000/svg" width="1920" height="831"><defs><linearGradient id="a" x1="94%" x2="0%" y1="34.2%" y2="0%"><stop offset="0%" stop-color="#FDF8CE"/><stop offset="100%" stop-color="#FDFCF7"/></linearGradient></defs><path fill-rule="evenodd" fill="url(#a)" d="M5 27.4s93.6-33.5 285.7 0C479.7 60.3 715.9 0 960 0c206.8 0 389.6 64.8 580.6 27.4 215.6-42.3 374.4 0 374.4 0 2.8 0 5 2 5 4.4v744.6c0 2.5-2.2 4.4-5 4.4 0 0-478.3 50.2-956 50.2-477.3 0-954-50.2-954-50.2-2.8 0-5-2-5-4.4V31.8c0-2.4 2.2-4.4 5-4.4z"/></svg>