<svg xmlns="http://www.w3.org/2000/svg" width="343.4" height="936.9"><style>.st0{fill:#cc5a5f}.st1{fill:#f67a3b}.st2{fill:#9ba5c0}.st3{fill:#4f6179}.st4{opacity:.35;fill:#fff}.st5{fill:#e16f36}</style><path class="st0" d="M238.7 713.8c-9-4.6-21-5.6-30.9-5.3-1.9.1-1.9 3.1 0 3a63 63 0 0 1 29.4 4.9c1.7.9 3.2-1.7 1.5-2.6z"/><path class="st1" d="M237.2 716.4c-.1-.5-.2-3-1.1-3.6-.8-.6-1.9-.6-1.9-.6l1.1 3.2c.1.4.6.6 1.1.8l.8.2zM233.4 714.9c-.3-.6-.7-2.9-1.6-3.4-.9-.5-1.9-.5-1.9-.5l1.3 3.1c.4.7 2.2.8 2.2.8zM229.2 713.8c-.4-.6-.9-2.9-1.8-3.4s-1.9-.4-1.9-.4l1.5 3c.4.8 2.2.8 2.2.8zM225 712.9c-.4-.5-1-2.8-1.9-3.3-.9-.4-2-.3-2-.3l1.6 2.9c.5.7 2.3.7 2.3.7zM220.8 712.2c-.4-.5-1.1-2.8-2.1-3.2-.9-.4-2-.2-2-.2l1.8 2.9c.4.6 2.3.5 2.3.5zM216.5 711.7c-.4-.5-1.3-2.7-2.3-3-1-.3-2-.1-2-.1l2 2.7c.2.3.8.4 1.3.4h1zM212.2 711.4c-.5-.4-1.5-2.6-2.5-2.9-1-.2-2 .1-2 .1l2.2 2.6c.5.6 2.3.2 2.3.2z"/><path class="st0" d="M169.3 753.1c1.6-2 4.6-3.4 6.7-4.9 3.9-2.7 7.7-5.5 11.4-8.5 6.3-5.1 14.3-12.1 14.9-20.8.1-1.9-2.9-1.9-3 0-.6 8.9-10.8 16.3-17.3 21.3-3.1 2.4-6.4 4.6-9.7 6.9-1.7 1.1-3.9 2.3-5.1 3.9-1.2 1.5.9 3.6 2.1 2.1z"/><path class="st1" d="M167.1 751.2c.5-.3 1.3-.1 2 .1s1.5.4 1.9.3c.9-.3 1.5-1.1 1.5-1.1l-3.2-1c-.4-.1-.9.2-1.3.6l-.6.6-.3.5zM170.9 748.2c.7.1 2.7 1.3 3.6 1 .9-.3 1.6-1.1 1.6-1.1l-3.2-1c-.8-.2-2 1.1-2 1.1zM174.4 745.7c.7.1 2.7 1.3 3.6 1 .9-.3 1.6-1.1 1.6-1.1l-3.2-1c-.7-.2-2 1.1-2 1.1zM177.9 743.3c.7.1 2.7 1.2 3.6.9.9-.3 1.5-1.1 1.5-1.1l-3.2-.9c-.6-.3-1.9 1.1-1.9 1.1zM181.4 740.7c.7.1 2.8 1.2 3.7.8.9-.4 1.5-1.2 1.5-1.2l-3.2-.8c-.8-.1-2 1.2-2 1.2zM184.8 738.1c.7.1 2.8 1.1 3.7.7.9-.4 1.5-1.3 1.5-1.3l-3.3-.7c-.8-.1-1.9 1.3-1.9 1.3zM188.1 735.4c.7 0 2.8 1 3.7.5.9-.5 1.4-1.3 1.4-1.3l-3.3-.5c-.8-.2-1.8 1.3-1.8 1.3zM191.2 732.5c.6 0 2.9.8 3.7.3.9-.5 1.3-1.5 1.3-1.5l-1.4-.1a19 19 0 0 0-2-.2c-.7 0-1.6 1.5-1.6 1.5zM194.1 729.4c.7 0 2.9.6 3.8-.1.8-.6 1.2-1.6 1.2-1.6l-1.4.1h-2c-.4 0-.8.4-1.1.8l-.5.8zM196.6 726.1c.6-.1 3 .2 3.7-.6.4-.4.6-.8.7-1.2l.2-.6-1.4.4-1.9.4c-.7 0-1.3 1.6-1.3 1.6zM198.5 722.6l1.7-.4c.7-.2 1.5-.6 1.7-1.1.3-.5.3-1 .3-1.5v-.7l-1.2.8-1.7.9c-.3.2-.5.6-.6 1.1l-.1.6-.1.3z"/><path class="st2" d="M248.6 753.2l-34 8.7 1.3 10.9 34.9-12.6 3.3-5.1-5.5-1.9z"/><path class="st2" d="M265 751.9a12 12 0 1 0-23 7.1 12 12 0 0 0 23-7.1zm-17.1 5.2c-1-3.1.8-6.4 3.9-7.3 3.1-1 6.4.8 7.3 3.9 1 3.1-.8 6.4-3.9 7.3a6 6 0 0 1-7.3-3.9z"/><path class="st3" d="M219.8 760.1c.2 1.9-4.2 10.8-4 12.7l34.9-12.6 3.3-5.1-34.2 5z"/><path class="st4" d="M261.8 752.8a8.6 8.6 0 1 0-16.5 5 8.6 8.6 0 0 0 16.5-5zm-14.2 4.4a6.2 6.2 0 1 1 11.9-3.7 6.2 6.2 0 1 1-11.9 3.7z"/><path class="st3" d="M261.3 753a8.2 8.2 0 0 0-15.6 4.8 8.2 8.2 0 0 0 15.6-4.8zm-13.4 4.1c-1-3.1.8-6.4 3.9-7.3 3.1-1 6.4.8 7.3 3.9 1 3.1-.8 6.4-3.9 7.3a6 6 0 0 1-7.3-3.9z"/><path class="st2" d="M188 773.1l32.8-12.7 5.2 9.7-35.7 10-5.6-2.2 3.3-4.8z"/><path class="st2" d="M189.1 789.1a12 12 0 1 0-7.6-22.8 12 12 0 0 0 7.6 22.8zm-2-5.8c-3.1 1-6.4-.6-7.4-3.7s.6-6.4 3.7-7.4 6.4.6 7.4 3.7a5.7 5.7 0 0 1-3.7 7.4z"/><path class="st3" d="M212.3 763.5c.9 1.7 12.8 4.8 13.7 6.5l-35.7 10-5.6-2.2 27.6-14.3z"/><path class="st4" d="M188 785.9c4.5-1.5 7-6.4 5.5-11a8.7 8.7 0 0 0-11-5.5 8.7 8.7 0 0 0-5.5 11 8.7 8.7 0 0 0 11 5.5zm-.8-2.3a6.3 6.3 0 0 1-7.9-3.9 6.3 6.3 0 0 1 3.9-7.9c3.3-1.1 6.8.7 7.9 3.9a6 6 0 0 1-3.9 7.9z"/><path class="st3" d="M187.8 785.5c4.3-1.4 6.6-6 5.2-10.3a8.1 8.1 0 0 0-10.3-5.2 8.2 8.2 0 0 0 5.1 15.5zm-.7-2.2c-3.1 1-6.4-.6-7.4-3.7s.6-6.4 3.7-7.4 6.4.6 7.4 3.7a5.7 5.7 0 0 1-3.7 7.4z"/><path class="st0" d="M203.4 709.7c2.7 1.1 4.7 4.8 4.8 7.5.1 1.5 2.4 1.5 2.3 0-.1-3.9-2.8-8.2-6.5-9.7-1.3-.6-1.9 1.6-.6 2.2zM192.1 714.5c-.1 3.5 2.5 7.2 5.3 9 1.3.8 2.4-1.2 1.2-2-2.1-1.4-4.2-4.4-4.1-7 0-1.5-2.4-1.5-2.4 0z"/><path class="st5" d="M204.2 707.2c.9.9.4 3.3.9 4.1.5.9 1.3 1.6 1.3 1.6l.3-1.4.1-2.2c-.1-.5-.6-1-1.2-1.5l-.9-.5a2 2 0 0 1-.5-.1zM208.8 711.4c0 .4-.3 1.2-.6 1.9-.3.8-.7 1.5-.7 2l.2 1.3.1.6 1-1c.5-.6 1-1.4 1.2-1.9.2-.4-.1-1.2-.5-1.9-.2-.6-.7-1-.7-1zM194.7 714.6c-.5 0-2.4 1.8-2.2 3 .1 1.2 1 2.1 1 2.1l.5-1.4.9-1.8c.2-.3.1-.9 0-1.3l-.1-.5-.1-.1zM196 718.3l-.7 1.7c-.2.7-.3 1.6 0 2.1s.8.9 1.2 1.2l.7.4s-.2-.7-.2-1.5l.1-2c.1-.7-1.2-1.8-1.1-1.9z"/><path class="st2" d="M343.4 825.3c-5.6 37.8-29.9 60-50.1 72.2L270.9 931l-.2-.1-37.4-15.1a101 101 0 0 1-81.5-31.6l25.3 1.7-4.9 4.3c1 .5 25.3 12.6 64.1 5.1l6.3-9.4-38.4-149.7 3.6-10 9.3 6 52.7 146 9.6 3.8c37.3-16 50.5-40.4 50.5-40.4l-6.5-.8 20-15.5z"/><path class="st4" d="M262.6 905.4c9.6-3.5 18.1-9.4 26.3-15.5 9.5-7.1 18.9-14.6 26.6-23.7a67 67 0 0 0 15.7-31.6l6.8 2c-5.9 21.8-23.7 38.1-40.6 53-6.8 6-13.8 12.1-21.8 16.3-.9.5-1.9 1-2.4 1.8s-.6 1.8-.7 2.8c-.6 8.8.1 17.8 2.1 26.4-5.6-3.1-9.4-9-11-15.2a44 44 0 0 1 0-19.1l.4 2.1"/><path class="st4" d="M269.4 909.1a37.1 37.1 0 0 0-25.9-6.3c-9.1.6-18.1 2.7-27.2 2.6-13.8-.1-27-5.3-39.9-10.4 7 8.4 19.6 10.5 30.4 12.6a75 75 0 0 0 33-.8c3.5-.9 4.1.3 7.7.3 3.3-.1 6.6.8 9.8 1.3 3.7.6 7.5.9 11.3.8l.8-.1"/><path class="st2" d="M202.8 709.4a17.9 17.9 0 1 0 10.5 34.1 17.9 17.9 0 0 0-10.5-34.1zm8.4 27a10.4 10.4 0 1 1-6.1-19.9 10.4 10.4 0 0 1 6.1 19.9z"/><path class="st3" d="M263.7 907l-30.4 8.9a101 101 0 0 1-81.5-31.6l20.4 6c.8.8 27.9 26.8 74.2 15.2l17.3 1.5z"/><path class="st4" d="M265.6 910.8c-4.8-4-6.8-10.3-8.6-16.2l-22.3-72.4c-5.6-18.3-11.3-36.6-15.4-55.3.8-1.1 2.6-1 3.6-.1 1.1.9 1.6 2.2 2 3.5 3.2 9.3 6.2 18.6 8.5 28.2 2.4 9.9 4.2 19.9 6.5 29.9a692.6 692.6 0 0 0 26.1 82.9l-2.2-1.3"/><path class="st3" d="M263.3 907.1l-55.4-180.7 9.3 6 52.7 145.9 9.6 3.9z"/><path class="st4" d="M203.6 711.8a15.4 15.4 0 1 0 9 29.4 15.4 15.4 0 0 0-9-29.4zm7.7 25.2a11 11 0 0 1-13.8-7.3 11 11 0 0 1 7.3-13.8 11 11 0 0 1 13.8 7.3 11 11 0 0 1-7.3 13.8z"/><path class="st3" d="M203.8 712.7a14.6 14.6 0 0 0-9.6 18.1 14.6 14.6 0 0 0 18.1 9.6 14.6 14.6 0 0 0 9.6-18.1 14.4 14.4 0 0 0-18.1-9.6zm7.4 23.7a10.4 10.4 0 1 1-6.1-19.9 10.4 10.4 0 0 1 6.1 19.9zM343.4 825.3c-5.6 37.8-29.8 60-49.9 72.2l-22.3 34-7.5-24.4c68.9-36.4 70.5-68.1 70.5-68.1l-10.7 2 19.9-15.7z"/><path d="M217.4 774.4l-1.1.3 1.1-.3z" fill="#cc856c"/><g><path class="st0" d="M205.2 718.4c-4-10.8-5.2-23.1-7.5-34.2-4.5-22.8-8.9-45.7-13.5-68.5-10-49.7-19.6-100.1-35.1-148.5a475.1 475.1 0 0 0-23.7-57.2c-11.5-24.4-23.6-48.6-35.4-72.8-26.3-53.9-52.2-108.5-69.7-166C5.5 122.9-5.9 67.1 12.1 18.1c2-5.4 4.4-10.7 7.1-15.8C20.1.6 17.5-1 16.5.7-7.2 45-1.6 98.5 10 145.4c14.2 58.1 39 113.4 64.7 167.2 22.4 46.8 47.9 92.7 66.5 141.3 7.7 20.1 13 41.3 18.1 62.2 6.4 26.2 12.1 52.7 17.6 79.1 5.1 24.9 10 49.9 14.9 74.8 2.9 15 5.6 30.2 9.2 45.1l1.2 4.2c.7 1.8 3.7 1 3-.9z"/></g><g><path class="st1" d="M202.4 719.4c.3-.7 2-2.4 2.1-3.3 0-1-.5-1.8-.5-1.8l-.9 1.1-1.2 1.6c-.4.7.5 2.4.5 2.4zM201.1 715c.3-.6 2.2-2.1 2.2-3.1.1-1-.4-1.9-.4-1.9l-2.1 2.6c-.2.3-.2.9 0 1.4l.3 1zM200.2 710.7c.3-.6 2.2-2 2.3-3 .1-1-.4-1.9-.4-1.9l-2.2 2.6c-.5.6.3 2.3.3 2.3zM199.2 706.3c.3-.6 2.2-2 2.3-3 .1-1-.4-1.9-.4-1.9l-2.2 2.6c-.4.7.3 2.3.3 2.3zM198.3 702c.3-.6 2.2-2 2.3-3 .1-1-.4-1.9-.4-1.9l-2.2 2.6c-.4.6.3 2.3.3 2.3zM197.4 697.7c.3-.6 2.2-2 2.3-3 .1-1-.4-1.9-.4-1.9l-2.2 2.5c-.4.7.3 2.4.3 2.4zM196.6 693.4c.3-.6 2.3-2 2.3-3 .1-1-.4-1.9-.4-1.9l-2.2 2.5c-.5.7.3 2.4.3 2.4zM195.7 689.1c.3-.6 2.3-2 2.3-3 .1-1-.4-1.9-.4-1.9l-2.2 2.5c-.4.7.3 2.4.3 2.4zM194.8 684.8c.3-.6 2.3-2 2.3-3 .1-1-.4-1.9-.4-1.9l-2.2 2.5c-.4.7.3 2.4.3 2.4zM194 680.5c.3-.6 2.3-2 2.3-3 .1-1-.4-1.9-.4-1.9l-2.2 2.5c-.4.7.3 2.4.3 2.4zM193.1 676.2c.3-.6 2.3-2 2.3-3s-.4-1.9-.4-1.9l-2.2 2.5c-.4.7.3 2.4.3 2.4zM192.3 671.9c.3-.6 2.3-2 2.3-3 .1-1-.4-1.9-.4-1.9l-2.2 2.5c-.4.7.3 2.4.3 2.4zM191.5 667.6c.3-.6 2.3-2 2.3-3 .1-1-.4-1.9-.4-1.9l-2.2 2.5c-.5.7.3 2.4.3 2.4zM190.6 663.3c.3-.6 2.3-2 2.3-3 .1-1-.4-1.9-.4-1.9l-2.2 2.5c-.5.6.3 2.4.3 2.4zM189.8 659c.3-.6 2.3-2 2.3-3 .1-1-.4-1.9-.4-1.9l-2.2 2.5c-.5.7.3 2.4.3 2.4zM188.9 654.7c.3-.6 2.3-2 2.3-3 .1-1-.4-1.9-.4-1.9l-2.2 2.5c-.4.6.3 2.4.3 2.4zM188.1 650.3c.3-.6 2.3-2 2.3-3 .1-1-.4-1.9-.4-1.9l-2.2 2.5c-.4.7.3 2.4.3 2.4zM187.2 646c.3-.6 2.3-2 2.3-3 .1-1-.4-1.9-.4-1.9l-2.2 2.5c-.4.7.3 2.4.3 2.4zM186.4 641.7c.3-.6 2.3-2 2.3-3 .1-1-.4-1.9-.4-1.9l-2.2 2.5c-.4.7.3 2.4.3 2.4zM185.5 637.4c.3-.6 2.3-2 2.3-3 .1-1-.4-1.9-.4-1.9l-2.2 2.5c-.4.7.3 2.4.3 2.4zM184.7 633.1c.3-.6 2.3-2 2.3-3 .1-1-.4-1.9-.4-1.9l-2.2 2.5c-.4.7.3 2.4.3 2.4zM183.8 628.8c.3-.6 2.3-2 2.3-3 .1-1-.4-1.9-.4-1.9l-2.2 2.5c-.4.7.3 2.4.3 2.4zM183 624.5c.3-.6 2.3-2 2.3-3 .1-1-.4-1.9-.4-1.9l-2.2 2.5c-.5.7.3 2.4.3 2.4zM182.1 620.2c.3-.6 2.3-2 2.3-3 .1-1-.4-1.9-.4-1.9l-2.2 2.5c-.4.7.3 2.4.3 2.4zM181.2 615.9c.3-.6 2.3-2 2.3-3 .1-1-.4-1.9-.4-1.9l-2.2 2.5c-.4.7.3 2.4.3 2.4zM180.4 611.6c.3-.6 2.3-2 2.3-3 .1-1-.4-1.9-.4-1.9l-2.2 2.5c-.5.7.3 2.4.3 2.4zM179.5 607.3c.3-.6 2.3-2 2.3-3 .1-1-.4-1.9-.4-1.9l-2.2 2.5c-.4.7.3 2.4.3 2.4zM178.6 603c.3-.6 2.2-2 2.3-3 .1-1-.4-1.9-.4-1.9l-2.2 2.6c-.4.6.3 2.3.3 2.3zM177.7 598.7c.3-.6 2.2-2 2.3-3 .1-1-.4-1.9-.4-1.9l-2.2 2.6c-.4.6.3 2.3.3 2.3zM176.9 594.4c.3-.6 2.2-2 2.3-3 .1-1-.4-1.9-.4-1.9l-2.2 2.6c-.5.6.3 2.3.3 2.3zM176 590.1c.3-.6 2.2-2 2.3-3 .1-1-.4-1.9-.4-1.9l-2.2 2.6c-.5.6.3 2.3.3 2.3zM175.1 585.8c.3-.6 2.2-2 2.3-3 .1-1-.4-1.9-.4-1.9l-2.2 2.6c-.5.6.3 2.3.3 2.3zM174.2 581.5c.3-.6 2.2-2 2.3-3 .1-1-.4-1.9-.4-1.9l-2.2 2.6c-.5.6.3 2.3.3 2.3zM173.3 577.2c.3-.6 2.2-2 2.3-3s-.4-1.9-.4-1.9l-2.2 2.6c-.5.6.3 2.3.3 2.3zM172.3 572.9c.3-.6 2.2-2 2.3-3 .1-1-.4-1.9-.4-1.9l-2.2 2.6c-.4.6.3 2.3.3 2.3zM171.4 568.6c.3-.6 2.2-2 2.3-3 .1-1-.4-1.9-.4-1.9l-2.2 2.6c-.4.6.3 2.3.3 2.3zM170.5 564.3c.3-.6 2.2-2 2.3-3 .1-1-.4-1.9-.4-1.9l-2.2 2.6c-.4.6.3 2.3.3 2.3zM169.6 560c.3-.6 2.2-2 2.3-3 .1-1-.4-1.9-.4-1.9l-2.2 2.6c-.5.7.3 2.3.3 2.3zM168.6 555.8c.3-.6 2.2-2 2.3-3 .1-1-.4-1.9-.4-1.9l-2.2 2.6c-.4.6.3 2.3.3 2.3zM167.7 551.5c.3-.6 2.2-2 2.3-3 .1-1-.4-1.9-.4-1.9l-2.2 2.6c-.5.6.3 2.3.3 2.3zM166.7 547.2c.3-.6 2.2-2 2.3-3 .1-1-.4-1.9-.4-1.9l-2.2 2.6c-.4.6.3 2.3.3 2.3zM165.8 542.9c.3-.6 2.2-2 2.3-3 0-1-.4-1.9-.4-1.9l-2.1 2.6c-.6.6.2 2.3.2 2.3zM164.8 538.6c.3-.6 2.2-2 2.2-3s-.4-1.9-.4-1.9l-2.1 2.6c-.5.7.3 2.3.3 2.3zM163.8 534.4c.3-.6 2.2-2.1 2.2-3 0-1-.4-1.9-.4-1.9l-2.1 2.6c-.5.6.3 2.3.3 2.3zM162.8 530.1c.3-.6 2.2-2.1 2.2-3 0-1-.4-1.9-.4-1.9l-2.1 2.6c-.5.6.3 2.3.3 2.3zM161.8 525.8c.3-.6 2.2-2.1 2.2-3.1s-.4-1.9-.4-1.9l-2.1 2.6c-.5.8.3 2.4.3 2.4zM160.8 521.6c.3-.6 2.2-2.1 2.2-3.1s-.5-1.9-.5-1.9l-2.1 2.6c-.4.7.4 2.4.4 2.4zM159.8 517.3c.3-.6 2.2-2.1 2.2-3.1s-.5-1.9-.5-1.9l-2.1 2.6c-.4.7.4 2.4.4 2.4zM158.7 513c.3-.6 2.2-2.1 2.2-3.1s-.5-1.9-.5-1.9l-2.1 2.6c-.4.8.4 2.4.4 2.4zM157.6 508.8c.3-.6 2.2-2.1 2.2-3.1s-.5-1.9-.5-1.9l-2.1 2.7c-.4.6.4 2.3.4 2.3zM156.6 504.5c.3-.6 2.2-2.1 2.2-3.1s-.5-1.9-.5-1.9l-2.1 2.7c-.4.7.4 2.3.4 2.3zM155.5 500.3c.3-.6 2.1-2.1 2.1-3.1s-.5-1.9-.5-1.9l-2 2.7c-.4.6.4 2.3.4 2.3zM154.4 496.1c.3-.6 2.1-2.1 2.1-3.1s-.5-1.9-.5-1.9l-2 2.7c-.5.6.4 2.3.4 2.3zM153.2 491.8c.3-.6 2.1-2.1 2.1-3.1s-.5-1.9-.5-1.9l-2 2.7c-.4.7.4 2.3.4 2.3zM152.1 487.6c.3-.6 2.1-2.2 2.1-3.1 0-1-.5-1.9-.5-1.9l-2 2.7c-.5.7.4 2.3.4 2.3zM150.9 483.4c.3-.6 2.1-2.2 2.1-3.1 0-1-.6-1.9-.6-1.9l-2 2.7c-.4.6.5 2.3.5 2.3zM149.7 479.2c.3-.6 2.1-2.2 2-3.2 0-1-.6-1.9-.6-1.9l-2 2.7c-.3.8.6 2.4.6 2.4zM148.4 475c.3-.6 2.1-2.2 2-3.2 0-1-.6-1.9-.6-1.9l-1.9 2.8c-.4.7.5 2.3.5 2.3zM147.1 470.8c.3-.6 2-2.2 2-3.2 0-.5-.1-1-.3-1.3l-.3-.5-.8 1.1-1.1 1.6c-.4.7.5 2.3.5 2.3zM145.8 466.6c.3-.6 2-2.2 1.9-3.2-.1-1-.6-1.8-.6-1.8s-1.5 2.1-1.8 2.8c-.4.6.5 2.2.5 2.2zM144.4 462.5c.3-.6 2-2.3 1.9-3.3-.1-1-.6-1.8-.6-1.8l-1.8 2.8c-.5.7.5 2.3.5 2.3zM142.9 458.4c.3-.6 1.9-2.3 1.9-3.3-.1-1-.6-1.8-.6-1.8l-1.8 2.9c-.4.6.5 2.2.5 2.2zM141.5 454.3c.3-.6 1.9-2.3 1.8-3.3-.1-1-.7-1.8-.7-1.8l-1.7 2.9c-.2.3 0 .9.2 1.4l.4.8zM139.9 450.2c.2-.6 1.9-2.4 1.8-3.3-.1-1-.7-1.8-.7-1.8l-1.7 2.9c-.4.6.6 2.2.6 2.2zM138.3 446.1c.2-.6 1.8-2.4 1.7-3.4-.1-1-.8-1.8-.8-1.8l-1.7 2.9c-.3.8.8 2.3.8 2.3zM136.6 442.1c.2-.6 1.8-2.4 1.7-3.4-.1-1-.8-1.8-.8-1.8l-1.6 2.9c-.4.8.7 2.3.7 2.3zM134.9 438c.2-.6 1.8-2.4 1.7-3.4-.1-1-.8-1.8-.8-1.8s-1.3 2.2-1.6 3c-.4.7.7 2.2.7 2.2zM133.1 434c.2-.6 1.8-2.4 1.6-3.4-.1-1-.8-1.8-.8-1.8l-1.6 3c-.2.7.8 2.2.8 2.2zM131.4 430c.2-.6 1.8-2.4 1.6-3.4-.1-1-.8-1.8-.8-1.8l-1.6 3c-.3.7.8 2.2.8 2.2zM129.6 426c.2-.6 1.7-2.4 1.6-3.4-.1-1-.8-1.8-.8-1.8l-1.6 3c-.3.7.8 2.2.8 2.2zM127.7 422c.2-.6 1.7-2.5 1.6-3.4-.2-1-.8-1.8-.8-1.8l-1.6 3c-.2.7.8 2.2.8 2.2zM125.9 418c.2-.6 1.7-2.5 1.6-3.4-.2-1-.8-1.8-.8-1.8l-1.6 3c-.3.8.8 2.2.8 2.2zM124.1 414.1c.2-.6 1.7-2.5 1.6-3.4-.2-1-.8-1.8-.8-1.8l-1.5 3c-.4.7.7 2.2.7 2.2zM122.2 410.1c.2-.6 1.7-2.5 1.6-3.4-.2-1-.8-1.7-.8-1.7l-1.5 3c-.4.6.7 2.1.7 2.1zM120.3 406.1c.2-.6 1.7-2.5 1.5-3.5-.2-1-.8-1.7-.8-1.7l-1.5 3c-.3.8.8 2.2.8 2.2zM118.4 402.2c.2-.6 1.7-2.5 1.5-3.5-.2-1-.8-1.7-.8-1.7l-1.5 3c-.3.7.8 2.2.8 2.2zM116.5 398.2c.2-.6 1.7-2.5 1.5-3.5-.2-1-.8-1.7-.8-1.7l-1.5 3c-.3.8.8 2.2.8 2.2zM114.6 394.3c.2-.6 1.7-2.5 1.5-3.5-.2-1-.8-1.7-.8-1.7l-1.5 3c-.3.7.8 2.2.8 2.2zM112.7 390.3c.2-.6 1.7-2.5 1.5-3.5-.2-1-.8-1.7-.8-1.7l-1.5 3c-.3.8.8 2.2.8 2.2zM110.8 386.4c.2-.6 1.7-2.5 1.5-3.5-.2-1-.8-1.7-.8-1.7l-1.5 3c-.3.7.8 2.2.8 2.2zM108.9 382.4c.2-.6 1.7-2.5 1.5-3.5-.2-1-.9-1.7-.9-1.7l-1.5 3c-.2.8.9 2.2.9 2.2zM107 378.5c.2-.6 1.7-2.5 1.5-3.5-.2-1-.9-1.7-.9-1.7l-1.5 3c-.3.7.9 2.2.9 2.2zM105 374.5c.2-.6 1.7-2.5 1.5-3.5-.2-1-.9-1.7-.9-1.7l-1.5 3c-.2.8.9 2.2.9 2.2zM103.1 370.6c.2-.6 1.7-2.5 1.5-3.5-.2-1-.9-1.7-.9-1.7l-1.5 3c-.2.7.9 2.2.9 2.2zM101.2 366.7c.2-.6 1.7-2.5 1.5-3.5-.2-1-.9-1.7-.9-1.7l-1.5 3c-.3.7.9 2.2.9 2.2zM99.2 362.7c.2-.6 1.7-2.5 1.5-3.5-.2-1-.9-1.7-.9-1.7l-1.5 3c-.2.8.9 2.2.9 2.2zM97.3 358.8c.2-.6 1.7-2.5 1.5-3.5s-.9-1.7-.9-1.7l-1.5 3c-.2.7.9 2.2.9 2.2zM95.4 354.8c.2-.6 1.7-2.5 1.5-3.5-.2-1-.9-1.7-.9-1.7l-1.5 3c-.3.8.9 2.2.9 2.2zM93.4 350.9c.2-.6 1.7-2.5 1.5-3.5-.2-1-.9-1.7-.9-1.7l-1.5 3c-.3.7.9 2.2.9 2.2zM91.5 346.9c.2-.6 1.7-2.5 1.5-3.5-.2-1-.9-1.7-.9-1.7l-1.5 3c-.3.8.9 2.2.9 2.2zM89.6 343c.2-.6 1.7-2.5 1.5-3.5-.2-1-.8-1.7-.8-1.7l-1.5 3c-.4.7.8 2.2.8 2.2zM87.6 339.1c.2-.6 1.7-2.5 1.5-3.5-.2-1-.8-1.7-.8-1.7l-1.5 3c-.3.7.8 2.2.8 2.2zM85.7 335.1c.2-.6 1.7-2.5 1.5-3.5-.2-1-.8-1.7-.8-1.7l-1.5 3c-.3.8.8 2.2.8 2.2zM83.8 331.2c.2-.6 1.7-2.5 1.5-3.5-.2-1-.8-1.7-.8-1.7l-1.5 3c-.4.7.8 2.2.8 2.2zM81.9 327.2c.2-.6 1.7-2.5 1.5-3.5-.2-1-.8-1.7-.8-1.7l-1.5 3c-.4.7.8 2.2.8 2.2zM80 323.3c.2-.6 1.7-2.5 1.5-3.5-.2-1-.8-1.7-.8-1.7l-1.5 3c-.4.7.8 2.2.8 2.2zM78 319.3c.2-.6 1.7-2.5 1.5-3.5-.2-1-.8-1.7-.8-1.7l-1.5 3c-.3.7.8 2.2.8 2.2zM76.1 315.3c.2-.6 1.7-2.5 1.5-3.5-.2-1-.8-1.7-.8-1.7l-1.5 3c-.3.8.8 2.2.8 2.2zM74.2 311.4c.2-.6 1.7-2.5 1.5-3.5-.2-1-.8-1.7-.8-1.7l-1.5 3c-.3.7.8 2.2.8 2.2zM72.4 307.4c.2-.6 1.7-2.5 1.5-3.4-.2-1-.8-1.7-.8-1.7l-1.5 3c-.3.7.8 2.1.8 2.1zM70.5 303.4c.2-.6 1.7-2.5 1.6-3.4-.2-1-.8-1.8-.8-1.8l-1.5 3c-.4.8.7 2.2.7 2.2zM68.6 299.5c.2-.6 1.7-2.5 1.6-3.4-.2-1-.8-1.8-.8-1.8l-1.5 3c-.4.7.7 2.2.7 2.2zM66.7 295.5c.2-.6 1.7-2.5 1.6-3.4-.2-1-.8-1.8-.8-1.8l-1.6 3c-.3.7.8 2.2.8 2.2zM64.9 291.5c.2-.6 1.7-2.5 1.6-3.4-.2-1-.8-1.8-.8-1.8l-1.6 3c-.3.7.8 2.2.8 2.2zM63 287.5c.2-.6 1.7-2.5 1.6-3.4-.1-1-.8-1.8-.8-1.8l-1.6 3c-.3.7.8 2.2.8 2.2zM61.2 283.5c.2-.6 1.7-2.5 1.6-3.4-.1-1-.8-1.8-.8-1.8l-1.6 3c-.3.7.8 2.2.8 2.2zM59.4 279.5c.2-.6 1.7-2.4 1.6-3.4-.1-1-.8-1.8-.8-1.8l-1.6 3c-.3.7.8 2.2.8 2.2zM57.6 275.5c.2-.6 1.8-2.4 1.6-3.4-.1-1-.8-1.8-.8-1.8l-1.6 3c-.3.7.8 2.2.8 2.2zM55.8 271.5c.2-.6 1.8-2.4 1.6-3.4-.1-1-.8-1.8-.8-1.8s-1.3 2.2-1.6 3c-.3.7.8 2.2.8 2.2zM54 267.5c.2-.6 1.8-2.4 1.6-3.4-.1-1-.8-1.8-.8-1.8s-1.3 2.2-1.6 3c-.3.7.8 2.2.8 2.2zM52.2 263.5c.2-.6 1.8-2.4 1.6-3.4-.1-1-.8-1.8-.8-1.8s-1.3 2.2-1.6 3c-.3.7.8 2.2.8 2.2zM50.5 259.4c.2-.6 1.8-2.4 1.7-3.4-.1-1-.8-1.8-.8-1.8l-1.6 2.9c-.4.8.7 2.3.7 2.3zM48.7 255.4c.2-.6 1.8-2.4 1.7-3.4-.1-1-.8-1.8-.8-1.8l-1.6 2.9c-.4.8.7 2.3.7 2.3zM47 251.4c.2-.6 1.8-2.4 1.7-3.4-.1-1-.8-1.8-.8-1.8l-1.6 2.9c-.4.8.7 2.3.7 2.3zM45.2 247.3c.2-.6 1.8-2.4 1.7-3.4-.1-1-.7-1.8-.7-1.8l-1.7 2.9c-.3.8.7 2.3.7 2.3zM43.6 243.3c.2-.6 1.8-2.4 1.7-3.4-.1-1-.7-1.8-.7-1.8l-1.7 2.9c-.4.7.7 2.3.7 2.3zM41.9 239.2c.2-.6 1.8-2.4 1.7-3.4-.1-1-.7-1.8-.7-1.8l-1.7 2.9c-.4.8.7 2.3.7 2.3zM40.2 235.1c.2-.6 1.8-2.4 1.7-3.4-.1-1-.7-1.8-.7-1.8l-1.7 2.9c-.3.8.7 2.3.7 2.3zM38.5 231.1c.2-.6 1.9-2.4 1.8-3.3-.1-1-.7-1.8-.7-1.8l-1.7 2.9c-.4.6.6 2.2.6 2.2zM36.9 227c.2-.6 1.9-2.4 1.8-3.3-.1-1-.7-1.8-.7-1.8l-1.7 2.9c-.4.6.6 2.2.6 2.2zM35.3 222.9c.2-.6 1.9-2.4 1.8-3.3-.1-1-.7-1.8-.7-1.8l-1.7 2.9c-.4.6.6 2.2.6 2.2zM33.7 218.8c.2-.6 1.9-2.3 1.8-3.3-.1-1-.7-1.8-.7-1.8l-1.8 2.9c-.3.6.7 2.2.7 2.2zM32.1 214.7c.2-.6 1.9-2.3 1.8-3.3-.1-1-.7-1.8-.7-1.8l-1.8 2.9c-.3.6.7 2.2.7 2.2zM30.6 210.6c.2-.6 1.9-2.3 1.8-3.3-.1-1-.7-1.8-.7-1.8l-1.8 2.9c-.3.6.7 2.2.7 2.2zM29.1 206.4c.3-.6 1.9-2.3 1.9-3.3-.1-1-.7-1.8-.7-1.8l-1.8 2.8c-.4.8.6 2.3.6 2.3zM27.6 202.3c.3-.6 1.9-2.3 1.9-3.3-.1-1-.6-1.8-.6-1.8s-1.5 2.1-1.8 2.8c-.5.7.5 2.3.5 2.3zM26.1 198.2c.3-.6 2-2.3 1.9-3.3-.1-1-.6-1.8-.6-1.8s-1.5 2.1-1.8 2.8c-.5.7.5 2.3.5 2.3zM24.6 194c.3-.6 2-2.3 1.9-3.3 0-1-.6-1.8-.6-1.8l-1.9 2.8c-.3.7.6 2.3.6 2.3zM23.2 189.9c.3-.6 2-2.3 1.9-3.2 0-1-.6-1.8-.6-1.8l-1.9 2.8c-.3.6.6 2.2.6 2.2zM21.8 185.7c.3-.6 2-2.2 2-3.2s-.6-1.8-.6-1.8l-1.9 2.8c-.5.6.5 2.2.5 2.2zM20.4 181.5c.3-.6 2-2.2 2-3.2s-.6-1.8-.6-1.8l-1.9 2.8c-.4.6.5 2.2.5 2.2zM19.1 177.3c.3-.6 2-2.2 2-3.2s-.6-1.8-.6-1.8l-1.9 2.8c-.4.6.5 2.2.5 2.2zM17.8 173.1c.3-.6 2-2.2 2-3.2s-.6-1.8-.6-1.8l-1.9 2.7c-.4.7.5 2.3.5 2.3zM16.5 168.9c.3-.6 2.1-2.2 2.1-3.2s-.5-1.9-.5-1.9l-2 2.7c-.5.8.4 2.4.4 2.4zM15.3 164.7c.3-.6 2.1-2.2 2.1-3.2s-.5-1.9-.5-1.9l-2 2.7c-.5.7.4 2.4.4 2.4zM14 160.4c.3-.6 2.1-2.2 2.1-3.1 0-1-.5-1.9-.5-1.9l-2 2.7c-.4.7.4 2.3.4 2.3zM12.9 156.2c.3-.6 2.1-2.1 2.1-3.1s-.5-1.9-.5-1.9l-2.1 2.7c-.4.6.5 2.3.5 2.3zM11.7 151.9c.3-.6 2.1-2.1 2.2-3.1 0-1-.5-1.9-.5-1.9l-2.1 2.7c-.4.7.4 2.3.4 2.3zM10.6 147.7c.3-.6 2.2-2.1 2.2-3.1s-.4-1.9-.4-1.9l-2.1 2.6c-.5.7.3 2.4.3 2.4zM9.6 143.4c.3-.6 2.2-2.1 2.2-3.1s-.4-1.9-.4-1.9L9.3 141c-.5.7.3 2.4.3 2.4zM8.6 139.1c.3-.6 2.2-2 2.3-3 .1-1-.4-1.9-.4-1.9l-2.2 2.6c-.5.6.3 2.3.3 2.3zM7.6 134.8c.3-.6 2.2-2 2.3-3 .1-1-.4-1.9-.4-1.9l-2.2 2.6c-.4.6.3 2.3.3 2.3zM6.7 130.5c.3-.6 2.2-2 2.3-3 .1-1-.4-1.9-.4-1.9l-2.2 2.5c-.5.7.3 2.4.3 2.4zM5.8 126.2c.3-.6 2.3-2 2.4-2.9.1-1-.4-1.9-.4-1.9l-2.2 2.5c-.5.6.2 2.3.2 2.3zM5 121.9c.4-.6 2.3-1.9 2.4-2.9.1-1-.3-1.9-.3-1.9l-2.3 2.5c-.5.5.2 2.3.2 2.3zM4.2 117.5c.4-.6 2.3-1.9 2.4-2.9.1-1-.3-1.9-.3-1.9s-1.8 1.8-2.3 2.5c-.4.6.2 2.3.2 2.3zM3.5 113.2c.4-.6 2.3-1.9 2.5-2.9.1-1-.3-1.9-.3-1.9l-2.3 2.4c-.5.6.1 2.4.1 2.4zM2.9 108.8c.4-.6 2.3-1.8 2.5-2.8.2-1-.2-1.9-.2-1.9l-2.4 2.4c-.6.5.1 2.3.1 2.3zM2.3 104.4c.4-.6 2.4-1.8 2.5-2.8.2-1-.2-1.9-.2-1.9L2.2 102c-.5.7.1 2.4.1 2.4zM1.8 100c.4-.5 2.4-1.8 2.6-2.7.2-1-.2-1.9-.2-1.9l-2.5 2.3c-.5.6.1 2.3.1 2.3zM1.3 95.7c.4-.5 2.4-1.7 2.6-2.7.2-1-.1-2-.1-2s-2 1.7-2.5 2.3c-.5.6 0 2.4 0 2.4zM.9 91.3c.4-.5 2.5-1.7 2.7-2.7.2-1-.1-1.9-.1-1.9L1 88.9c-.6.6-.1 2.4-.1 2.4zM.6 86.8c.4-.5 2.5-1.7 2.7-2.6.2-1-.1-1.9-.1-1.9L.6 84.5c-.5.6 0 2.3 0 2.3zM.4 82.4c.4-.5 2.5-1.6 2.8-2.6.2-1-.1-1.9-.1-1.9L.5 80c-.5.6-.1 2.4-.1 2.4zM.3 78c.4-.5 2.6-1.6 2.9-2.5.3-.9 0-1.9 0-1.9S1 75.1.4 75.7c-.5.5-.1 2.3-.1 2.3zM.2 73.6c.4-.5 2.6-1.5 2.9-2.4.3-.9 0-1.9 0-1.9l-2.7 2c-.6.5-.2 2.3-.2 2.3zM.3 69.2c.5-.5 2.6-1.5 2.9-2.4.3-.9 0-1.9 0-1.9l-2.7 2c-.6.5-.2 2.3-.2 2.3zM.4 64.8c.5-.5 2.7-1.4 3-2.3.3-.9.1-1.9.1-1.9L.7 62.5c-.3.2-.4.8-.4 1.4l.1.9zM.6 60.3c.5-.5 2.7-1.3 3-2.3.3-.9.2-1.9.2-1.9L1 58c-.7.5-.4 2.3-.4 2.3zM.9 55.9c.5-.5 2.7-1.3 3.1-2.2.4-.9.2-1.9.2-1.9l-2.8 1.8c-.7.5-.5 2.3-.5 2.3zM1.4 51.5c.5-.5 2.7-1.2 3.2-2.1.4-.9.3-1.9.3-1.9S2.6 48.7 2 49.2c-.3.2-.5.8-.5 1.3-.2.6-.1 1-.1 1zM1.9 47.1c.5-.4 2.8-1.1 3.2-2 .4-.9.3-1.9.3-1.9l-3 1.6c-.6.5-.5 2.3-.5 2.3zM2.6 42.8c.5-.4 2.8-1 3.3-1.9.4-.9.3-1.9.3-1.9l-3 1.5c-.7.4-.6 2.3-.6 2.3zM3.4 38.4c.5-.4 2.8-1 3.3-1.8.5-.9.4-1.9.4-1.9L4 36.1c-.3.2-.5.8-.6 1.3v1zM4.3 34.1c.6-.4 2.9-.9 3.3-1.7l.4-1.2.1-.6L5 31.9c-.7.3-.7 2.2-.7 2.2zM5.3 29.8c.6-.4 2.9-.8 3.4-1.6s.5-1.8.5-1.8l-3.1 1.3c-.6.2-.8 2.1-.8 2.1zM6.5 25.5c.6-.4 2.9-.7 3.5-1.5.6-.8.6-1.8.6-1.8l-3.2 1.1c-.4.1-.6.7-.7 1.2l-.2 1zM7.9 21.2c.6-.3 2.9-.6 3.5-1.4.5-.8.6-1.8.6-1.8l-3.2 1c-.7.4-.9 2.2-.9 2.2zM9.3 17.1c.6-.3 3-.5 3.6-1.3.6-.8.7-1.8.7-1.8l-3.2.9c-.8.3-1.1 2.2-1.1 2.2zM10.9 12.9c.6-.3 3-.4 3.6-1.1.6-.7.8-1.7.8-1.7s-2.5.5-3.3.8c-.4.1-.7.6-.9 1.1l-.2.9zM12.7 8.8c.6-.3 3-.3 3.6-1 .7-.7.9-1.7.9-1.7s-2.6.4-3.3.7c-.8.2-1.2 2-1.2 2zM14.6 4.8c.6-.3 3-.2 3.7-.9.7-.7.9-1.7.9-1.7l-3.3.6c-.8.2-1.3 2-1.3 2z"/></g><g><path class="st0" d="M206 708.5c1.1.4 2.1 1.9 2.6 2.8 1.1 1.8 1.9 3.8 2 5.9.1 1.8 2.9 1.8 2.8 0-.3-3.9-2.5-10-6.7-11.4-1.6-.6-2.4 2.1-.7 2.7z"/></g><g><path class="st1" d="M206.7 705.8c.4.4.6 1.2.5 1.9-.1.7-.2 1.4 0 1.8.3.7 1 1.2 1 1.2l.4-1.2.4-1.9c0-.4-.4-.9-.9-1.2l-.8-.4-.6-.2zM210.5 709c-.1.7-1.3 2.6-1.3 3.4.1.8.7 1.5.7 1.5l.8-1.1.9-1.7c.1-.4-.1-.9-.4-1.3l-.7-.8zM212.6 712.8c-.2.7-2 2.2-2.1 2.9v1.1l.1.5 1.1-.8 1.4-1.4c.4-.6-.5-2.3-.5-2.3z"/></g><g><path class="st0" d="M203.4 706.9c1.8 2.4.4 7.1-.9 9.4-.8 1.4 1.4 2.7 2.2 1.3 1.7-3 3.2-8.8.9-12-.9-1.3-3.1-.1-2.2 1.3z"/></g><g><path class="st1" d="M205.6 705.3c.1.5-.2 1.2-.7 1.8-.5.5-1 1-1.1 1.4-.2.7.1 1.4.1 1.4l1.1-.7a6 6 0 0 0 1.4-1.3c.2-.3.2-.9 0-1.4l-.4-.8-.4-.4zM206.9 709.7c-.4.5-2.6 1.3-2.9 2-.3.7-.2 1.4-.2 1.4l1.2-.4 1.7-.8c.3-.2.4-.8.4-1.2l-.2-1zM206.5 713.8c-.5.4-2.9.6-3.4 1.1l-.5.8-.1.4h1.3c.7 0 1.5-.2 1.9-.3.7-.2.8-2 .8-2z"/></g><g><path class="st0" d="M202.2 717.1c-3 2-8.7-.2-11.3-1.9-1.7-1.1-3.3 1.6-1.6 2.7 3.5 2.4 10.5 4.6 14.5 1.9 1.6-1.1.1-3.9-1.6-2.7z"/></g><g><path class="st1" d="M203.8 719.5c-.6.1-1.3-.3-1.9-.8-.6-.5-1.1-1-1.5-1.1-.9-.2-1.8.1-1.8.1l.8 1.1 1.4 1.5c.3.3 1 .2 1.7 0l.9-.4.4-.4zM198.5 720.6c-.6-.5-1.4-2.7-2.2-3.1-.8-.4-1.8-.4-1.8-.4a18.7 18.7 0 0 0 1.4 3.1c.2.3.9.5 1.5.5l1.1-.1zM193.7 719.8c-.4-.6-.7-3-1.3-3.6l-1-.7-.5-.2a12.5 12.5 0 0 0 .5 3.4c.2.8 2.3 1.2 2.3 1.1z"/></g><g><path class="st0" d="M195.9 706.1c-2 6-.3 13.8 2.4 19.3.7 1.5 3 .2 2.3-1.3-2.4-4.8-4-12-2.2-17.3.6-1.6-2-2.3-2.5-.7z"/><path class="st1" d="M198.5 707c-.5 0-2.9.8-3.3 1.9-.4 1.1-.1 2.2-.1 2.2l1.1-.9 1.6-1.2c.3-.2.4-.8.5-1.3l.2-.7zM198 711.1c-.5.5-2.6 1.6-2.8 2.7-.2 1.1.2 2.2.2 2.2l1-1 1.5-1.4c.3-.3.3-.9.3-1.4l-.2-1.1zM198.2 715.6c-.4.5-2.4 1.9-2.4 3.1l.2 1.5.3.6.8-1.2 1.2-1.6c.2-.3.2-.9.1-1.4 0-.6-.2-1-.2-1zM199.1 719.9c-.3.6-2 2.3-1.8 3.4.1.6.3 1.1.5 1.4l.4.6.6-1.3.9-1.8c.3-.6-.6-2.3-.6-2.3z"/></g></svg>