<svg xmlns="http://www.w3.org/2000/svg" width="389.5" height="235.9">
  <style>
    .st1,.st2{fill:#257ed9}.st2{opacity:.66}.st3,.st4{fill:#2667b9}.st4{opacity:.34}.st5{opacity:.53;fill:#257ed9}
  </style>
  <g opacity=".5">
    <path class="st1" d="M121.9 123.3c-.3-1.8-1.1-3.5-2.2-5a1 1 0 0 1-.3-.7l.2-.4a7 7 0 0 0 1.3-2.4c.3-1 .4-2.1 1.2-2.7-1.8.1-3.6.6-5.2 1.4-.9.5-1.9 1.1-2.1 2.1-.2-.6-.6-1-1-1.4a15.7 15.7 0 0 0-9.9-3.9c.2-.6.5-1.2 1-1.6l-1.1-.4c-1.5-.3-3-.5-4.5-.3a6 6 0 0 0-3.9 1.9l-.5.7c-.7.8-1.8 1.1-2.7 1.8-1.5 1.1-2.2 2.8-2.9 4.5-.1.3-.3.7-.3 1.1 0 .5.2 1 .5 1.4 1.3 2.2 3.4 3.9 5.8 4.7l.6.3.3.5c.5 1.1 1.7 1.6 2.8 1.7h3.5c-.2-.7-.6-1.3-1.1-1.8.9.3 1.9.4 2.9.2.3-.1.7-.2 1-.1l.5.3c.5.4 1.1.9 1.7.9l1-.2c1.5-.5 2.9-1.3 4.2-2.2a2 2 0 0 1-1.7-1 5.9 5.9 0 0 0 3.5-3.4c0 .2 4.6 3.2 7.4 4zM38 125.5c-.3-1.8-1.1-3.5-2.2-5a1 1 0 0 1-.3-.7l.2-.4A7 7 0 0 0 37 117c.3-1 .4-2.1 1.2-2.7-1.8.1-3.6.6-5.2 1.4-.9.5-1.9 1.1-2.1 2.1-.2-.6-.6-1-1-1.4a15.7 15.7 0 0 0-9.9-3.9c.2-.6.5-1.2 1-1.6l-1.1-.4c-1.5-.3-3-.5-4.5-.3a6 6 0 0 0-3.9 1.9 3 3 0 0 0-.5.7c-.7.8-1.8 1.1-2.7 1.8-1.5 1.1-2.2 2.8-2.9 4.5-.1.3-.3.7-.3 1.1 0 .5.2 1 .5 1.4 1.3 2.2 3.4 3.9 5.8 4.7l.6.3.3.5c.5 1.1 1.7 1.6 2.8 1.7h3.5c-.2-.7-.6-1.3-1.1-1.8.9.3 1.9.4 2.9.2.3-.1.7-.2 1-.1l.5.3c.5.4 1.1.9 1.7.9l1-.2c1.5-.5 2.9-1.3 4.2-2.2a2 2 0 0 1-1.7-1 5.9 5.9 0 0 0 3.5-3.4c0 .1 4.6 3.1 7.4 4zM129.5 177.8c-.3-1.8-1.1-3.5-2.2-5a1 1 0 0 1-.3-.7l.2-.4a7 7 0 0 0 1.3-2.4c.3-1 .4-2.1 1.2-2.7-1.8.1-3.6.6-5.2 1.4-.9.5-1.9 1.1-2.1 2.1-.2-.6-.6-1-1-1.4a15.7 15.7 0 0 0-9.9-3.9c.2-.6.5-1.2 1-1.6l-1.1-.4c-1.5-.3-3-.5-4.5-.3s-3 .8-3.9 1.9a3 3 0 0 0-.5.7c-.7.8-1.8 1.1-2.7 1.8-1.5 1.1-2.2 2.8-2.9 4.5-.1.3-.3.7-.3 1.1 0 .5.2 1 .5 1.4 1.3 2.2 3.4 3.9 5.8 4.7l.6.3.3.5c.5 1.1 1.7 1.6 2.8 1.7h3.5c-.2-.7-.6-1.3-1.1-1.8.9.3 1.9.4 2.9.2.3-.1.7-.2 1-.1l.5.3c.5.4 1.1.9 1.7.9l1-.2c1.5-.5 2.9-1.3 4.2-2.2a2 2 0 0 1-1.7-1 5.9 5.9 0 0 0 3.5-3.4c0 .1 4.7 3.1 7.4 4zM95.7 51.3c-.3-1.9-1.1-3.6-2.2-5.1a1 1 0 0 1-.3-.7l.2-.4a7 7 0 0 0 1.3-2.4c.3-1 .4-2.1 1.2-2.7-1.8.1-3.7.6-5.3 1.4-.9.5-1.9 1.1-2.2 2.2a3 3 0 0 0-1.1-1.4 17 17 0 0 0-10.2-4c.2-.6.6-1.2 1-1.7-.3-.3-.8-.3-1.2-.4-1.5-.3-3-.5-4.6-.3-1.5.2-3 .8-4 2l-.6.7c-.7.8-1.8 1.2-2.7 1.8a10.3 10.3 0 0 0-3 4.6c-.1.3-.3.7-.3 1.1 0 .5.2 1 .5 1.4 1.3 2.3 3.5 4 6 4.8l.6.3.3.5c.5 1.1 1.7 1.7 2.9 1.8h3.6c-.2-.7-.6-1.3-1.1-1.9.9.3 2 .4 2.9.2.3-.1.7-.2 1-.1l.6.3c.5.4 1.1.9 1.8.9l1-.2a15 15 0 0 0 4.3-2.3 2 2 0 0 1-1.7-1 6.7 6.7 0 0 0 3.6-3.4c.1 0 4.9 3.1 7.7 4zM82.7 81.2a6 6 0 0 0-1.3-2.9.8.8 0 0 1-.2-.4l.1-.2c.3-.4.6-.9.7-1.4.2-.6.2-1.2.7-1.6-1.1.1-2.1.3-3 .8-.5.3-1.1.6-1.2 1.2l-.6-.8a9.6 9.6 0 0 0-5.8-2.3c.1-.4.3-.7.6-.9l-.7-.2c-.9-.2-1.7-.3-2.6-.2s-1.7.4-2.3 1.1l-.3.4c-.4.5-1.1.7-1.6 1-.9.6-1.3 1.7-1.7 2.6l-.2.6c0 .3.1.6.3.8.8 1.3 2 2.3 3.4 2.8l.3.2.2.3c.3.6 1 .9 1.7 1h2c-.1-.4-.3-.8-.6-1.1.5.2 1.1.2 1.7.1l.6-.1.3.2c.3.2.6.5 1 .5l.6-.1c.9-.3 1.7-.7 2.5-1.3-.4 0-.8-.2-1-.6.9-.3 1.7-1.1 2-2 .1.2 2.9 1.9 4.4 2.5zM156.7 99.4c-.3-1.8-1.1-3.5-2.2-5a1 1 0 0 1-.3-.7l.2-.4a7 7 0 0 0 1.3-2.4c.3-1 .4-2.1 1.2-2.7-1.8.1-3.6.6-5.2 1.4-.9.5-1.9 1.1-2.1 2.1-.2-.6-.6-1-1-1.4a15.7 15.7 0 0 0-9.9-3.9c.2-.6.5-1.2 1-1.6l-1.1-.4c-1.5-.3-3-.5-4.5-.3a6 6 0 0 0-3.9 1.9 3 3 0 0 0-.5.7c-.7.8-1.8 1.1-2.7 1.8-1.5 1.1-2.2 2.8-2.9 4.5-.1.3-.3.7-.3 1.1 0 .5.2 1 .5 1.4 1.3 2.2 3.4 3.9 5.8 4.7l.6.3.3.5c.5 1.1 1.7 1.6 2.8 1.7h3.5c-.2-.7-.6-1.3-1.1-1.8.9.3 1.9.4 2.9.2.3-.1.7-.2 1-.1l.5.3c.5.4 1.1.9 1.7.9l1-.2c1.5-.5 2.9-1.3 4.2-2.2a2 2 0 0 1-1.7-1 5.9 5.9 0 0 0 3.5-3.4c.1.1 4.7 3.1 7.4 4zM146.8 146.3a7.3 7.3 0 0 0-1.4-3.1.8.8 0 0 1-.2-.4l.1-.2c.4-.4.6-.9.8-1.5.2-.6.3-1.3.7-1.7-1.1.1-2.2.4-3.3.9-.6.3-1.2.7-1.3 1.3-.1-.3-.4-.6-.7-.9a9.6 9.6 0 0 0-6.2-2.4c.1-.4.3-.7.6-1-.2-.2-.5-.2-.7-.3-.9-.2-1.9-.3-2.8-.2a4 4 0 0 0-2.5 1.2l-.3.4c-.5.5-1.1.7-1.7 1.1-.9.7-1.4 1.8-1.8 2.8l-.2.7.3.9a6.5 6.5 0 0 0 3.7 3l.3.2.2.3c.3.7 1.1 1 1.8 1.1h2.2c-.1-.4-.4-.8-.7-1.1.6.2 1.2.2 1.8.1l.6-.1.3.2c.3.2.7.6 1.1.6l.6-.1c.9-.3 1.8-.8 2.6-1.4-.4 0-.9-.2-1-.6 1-.3 1.8-1.1 2.2-2.1.3-.1 3.2 1.8 4.9 2.3zM177.3 135.9c-.2-.9-.5-1.8-1.1-2.5-.1-.1-.2-.2-.1-.3l.1-.2c.3-.3.5-.8.6-1.2.1-.5.2-1 .6-1.3a6 6 0 0 0-2.6.7c-.5.2-.9.6-1.1 1l-.5-.7a7.5 7.5 0 0 0-4.9-1.9l.5-.8-.6-.2-2.2-.2c-.7.1-1.5.4-2 1l-.3.3c-.4.4-.9.6-1.3.9-.7.5-1.1 1.4-1.4 2.3l-.1.5.2.7c.6 1.1 1.7 2 2.9 2.4l.3.1.1.3c.2.5.8.8 1.4.9h1.7l-.5-.9c.5.2 1 .2 1.4.1h.5l.3.1c.3.2.5.4.9.5l.5-.1c.7-.3 1.5-.6 2.1-1.1-.3 0-.7-.2-.8-.5.8-.3 1.4-.9 1.7-1.7.1-.2 2.4 1.3 3.7 1.8z"/>
    <path class="st2" d="M41.7 105.9a4 4 0 0 0-.8-1.9l-.1-.3.1-.1.5-.9c.1-.4.2-.8.5-1-.7 0-1.4.2-2 .5-.4.2-.7.4-.8.8l-.4-.5a6.3 6.3 0 0 0-3.9-1.5c.1-.2.2-.5.4-.6l-.4-.2c-.6-.1-1.2-.2-1.7-.1-.6.1-1.2.3-1.5.7l-.2.3-1 .7c-.6.4-.9 1.1-1.1 1.8l-.1.4.2.5c.5.9 1.3 1.5 2.3 1.8l.2.1.1.2c.2.4.7.6 1.1.7h1.4l-.4-.7 1.1.1c.1 0 .3-.1.4 0l.2.1.7.4.4-.1a5 5 0 0 0 1.6-.9c-.3 0-.5-.1-.7-.4.6-.2 1.1-.7 1.4-1.3-.4-.1 1.5 1 2.5 1.4zM161.6 47a4 4 0 0 0-.8-1.9l-.1-.3.1-.1.5-.9c.1-.4.2-.8.5-1-.7 0-1.4.2-2 .5-.4.2-.7.4-.8.8l-.4-.5a6.3 6.3 0 0 0-3.9-1.5c.1-.2.2-.5.4-.6l-.4-.2c-.6-.1-1.2-.2-1.7-.1-.6.1-1.2.3-1.5.7l-.2.3-1 .7c-.6.4-.9 1.1-1.1 1.8l-.1.4.2.5c.5.9 1.3 1.5 2.3 1.8l.2.1.1.2c.2.4.7.6 1.1.7h1.4l-.4-.7 1.1.1c.1 0 .3-.1.4 0l.2.1.7.4.4-.1a5 5 0 0 0 1.6-.9c-.3 0-.5-.1-.7-.4.6-.2 1.1-.7 1.4-1.3-.4-.1 1.4 1.1 2.5 1.4z"/>
    <path class="st1" d="M84.6 126.6a7.3 7.3 0 0 0-1.5-3.5.8.8 0 0 1-.2-.5l.2-.3c.4-.5.7-1.1.9-1.7.2-.7.3-1.5.8-1.9-1.3.1-2.5.4-3.6 1-.6.3-1.3.8-1.5 1.5-.1-.4-.4-.7-.7-1a11 11 0 0 0-7-2.7c.1-.4.4-.8.7-1.1-.2-.2-.5-.2-.8-.3-1-.2-2.1-.3-3.1-.2-1 .1-2.1.5-2.8 1.3l-.4.5c-.5.6-1.3.8-1.9 1.2-1 .7-1.6 2-2 3.2l-.2.7.3 1a7 7 0 0 0 4.1 3.3l.4.2.2.4c.3.8 1.2 1.1 2 1.2h2.4c-.1-.5-.4-.9-.7-1.3.6.2 1.3.3 2 .1l.7-.1.4.2c.4.3.7.6 1.2.6l.7-.1c1.1-.4 2.1-.9 2.9-1.5-.5 0-1-.3-1.2-.7a4 4 0 0 0 2.4-2.4c.2.2 3.4 2.3 5.3 2.9z"/>
    <path class="st2" d="M99.9 153a4 4 0 0 0-.9-2l-.1-.3.1-.1.5-1c.1-.4.2-.8.5-1.1-.7 0-1.4.2-2.1.5-.4.2-.7.4-.9.8l-.4-.5a5.9 5.9 0 0 0-4-1.5c.1-.2.2-.5.4-.6l-.5-.2c-.6-.1-1.2-.2-1.8-.1-.6.1-1.2.3-1.6.8l-.2.3-1.1.7c-.6.4-.9 1.1-1.2 1.8l-.1.4.2.6c.5.9 1.4 1.6 2.3 1.9l.2.1.1.2c.2.4.7.6 1.1.7h1.4l-.4-.7 1.1.1c.1 0 .3-.1.4 0l.2.1c.2.2.4.4.7.4l.4-.1c.6-.2 1.2-.5 1.7-.9a.8.8 0 0 1-.7-.4c.6-.2 1.2-.7 1.4-1.3.3-.2 2.2 1 3.3 1.4z"/>
    <path class="st3" d="M108.6 96.2a7.1 7.1 0 0 0-1.3-3.1.8.8 0 0 1-.2-.4l.1-.2c.4-.4.6-.9.8-1.5.2-.6.2-1.3.7-1.6-1.1.1-2.2.3-3.2.8-.6.3-1.1.7-1.3 1.3l-.6-.8a10 10 0 0 0-6.1-2.4c.1-.4.3-.7.6-1-.2-.2-.5-.2-.7-.2-.9-.2-1.8-.3-2.7-.2-.9.1-1.8.5-2.4 1.2l-.3.4c-.4.5-1.1.7-1.6 1.1a6 6 0 0 0-1.8 2.8l-.2.7c0 .3.1.6.3.8a6.5 6.5 0 0 0 3.6 2.9l.3.2.2.3c.3.7 1 1 1.7 1.1s1.4 0 2.2 0c-.1-.4-.3-.8-.7-1.1.6.2 1.2.2 1.8.1l.6-.1.3.2c.3.2.7.5 1.1.6l.6-.1c.9-.3 1.8-.8 2.6-1.4-.4 0-.9-.2-1-.6 1-.3 1.8-1.1 2.1-2.1 0-.1 2.9 1.8 4.5 2.3zM45.4 69a7.1 7.1 0 0 0-1.3-3.1.8.8 0 0 1-.2-.4l.1-.2c.4-.4.6-.9.8-1.5.2-.6.2-1.3.7-1.6-1.1.1-2.2.3-3.2.8-.6.3-1.1.7-1.3 1.3l-.6-.8a10 10 0 0 0-6.1-2.4c.1-.4.3-.7.6-1-.2-.2-.5-.2-.7-.2-.9-.2-1.8-.3-2.7-.2-.9.1-1.8.5-2.4 1.2l-.3.4c-.4.5-1.1.7-1.6 1.1a6 6 0 0 0-1.8 2.8l-.2.7c0 .3.1.6.3.8a6.5 6.5 0 0 0 3.6 2.9l.3.2.2.3c.3.7 1 1 1.7 1.1h2.2c-.1-.4-.3-.8-.7-1.1.6.2 1.2.2 1.8.1l.6-.1.3.2c.3.2.7.5 1.1.6l.6-.1c.9-.3 1.8-.8 2.6-1.4-.4 0-.9-.2-1-.6 1-.3 1.8-1.1 2.1-2.1 0-.1 2.9 1.7 4.5 2.3z"/>
    <path class="st4" d="M132.6 65.7a7.1 7.1 0 0 0-1.3-3.1.8.8 0 0 1-.2-.4l.1-.2c.4-.4.6-.9.8-1.5.2-.6.2-1.3.7-1.6-1.1.1-2.2.3-3.2.8-.6.3-1.1.7-1.3 1.3l-.6-.8a10 10 0 0 0-6.1-2.4c.1-.4.3-.7.6-1-.2-.2-.5-.2-.7-.2-.9-.2-1.8-.3-2.7-.2-.9.1-1.8.5-2.4 1.2l-.3.4c-.4.5-1.1.7-1.6 1.1a6 6 0 0 0-1.8 2.8l-.2.7c0 .3.1.6.3.8a6.5 6.5 0 0 0 3.6 2.9l.3.2.2.3c.3.7 1 1 1.7 1.1h2.2c-.1-.4-.3-.8-.7-1.1.6.2 1.2.2 1.8.1l.6-.1.3.2c.3.2.7.5 1.1.6l.6-.1c.9-.3 1.8-.8 2.6-1.4-.4 0-.9-.2-1-.6 1-.3 1.8-1.1 2.1-2.1 0-.1 2.8 1.8 4.5 2.3zM49.6 190.7a7.1 7.1 0 0 0-1.3-3.1.8.8 0 0 1-.2-.4l.1-.2c.4-.4.6-.9.8-1.5.2-.6.2-1.3.7-1.6-1.1.1-2.2.3-3.2.8-.6.3-1.1.7-1.3 1.3l-.6-.8a10 10 0 0 0-6.1-2.4c.1-.4.3-.7.6-1-.2-.2-.5-.2-.7-.2-.9-.2-1.8-.3-2.7-.2-.9.1-1.8.5-2.4 1.2l-.3.4c-.4.5-1.1.7-1.6 1.1a6 6 0 0 0-1.8 2.8l-.2.7c0 .3.1.6.3.8a6.5 6.5 0 0 0 3.6 2.9l.3.2.2.3c.3.7 1 1 1.7 1.1h2.2c-.1-.4-.3-.8-.7-1.1.6.2 1.2.2 1.8.1l.6-.1.3.2c.3.2.7.5 1.1.6l.6-.1c.9-.3 1.8-.8 2.6-1.4-.4 0-.9-.2-1-.6 1-.3 1.8-1.1 2.1-2.1 0-.1 2.8 1.8 4.5 2.3z"/>
    <path class="st1" d="M223.2 15.6c-.3-1.8-1-3.6-2.1-5a1 1 0 0 1-.3-.7l.2-.4c.6-.7 1-1.5 1.3-2.3.3-1 .4-2.1 1.2-2.7-1.8.1-3.6.5-5.2 1.3-.9.4-1.9 1.1-2.2 2.1-.2-.6-.6-1-1-1.4a15.6 15.6 0 0 0-9.9-4c.2-.6.6-1.2 1-1.6-.3-.3-.7-.3-1.1-.4-1.5-.3-3-.5-4.5-.4-1.5.1-3 .7-4 1.9l-.6.7c-.7.8-1.8 1.1-2.7 1.7-1.5 1-2.3 2.8-3 4.5-.1.3-.3.7-.3 1.1 0 .5.2 1 .4 1.4a11 11 0 0 0 5.8 4.8c.2.1.4.1.5.3l.3.5c.4 1.1 1.7 1.6 2.8 1.8l3.5.1a4 4 0 0 0-1-1.8c.9.3 1.9.4 2.9.2.3-.1.7-.2 1-.1l.5.3c.5.4 1.1.9 1.7 1l1-.2c1.5-.5 2.9-1.2 4.2-2.1a2 2 0 0 1-1.7-1 5.7 5.7 0 0 0 3.5-3.3c.5-.3 5.1 2.8 7.8 3.7zM94.2 196.6c-.3-1.8-1-3.6-2.1-5a1 1 0 0 1-.3-.7l.2-.4c.6-.7 1-1.5 1.3-2.3.3-1 .4-2.1 1.2-2.7-1.8.1-3.6.5-5.2 1.3-.9.4-1.9 1.1-2.2 2.1-.2-.6-.6-1-1-1.4a15.6 15.6 0 0 0-9.9-4c.2-.6.6-1.2 1-1.6-.3-.3-.7-.3-1.1-.4-1.5-.3-3-.5-4.5-.4-1.5.1-3 .7-4 1.9l-.6.7c-.7.8-1.8 1.1-2.7 1.7-1.5 1-2.3 2.8-3 4.5-.1.3-.3.7-.3 1.1 0 .5.2 1 .4 1.4a11 11 0 0 0 5.8 4.8c.2.1.4.1.5.3l.3.5c.4 1.1 1.7 1.6 2.8 1.8l3.5.1a4 4 0 0 0-1-1.8c.9.3 1.9.4 2.9.2.3-.1.7-.2 1-.1l.5.3c.5.4 1.1.9 1.7 1l1-.2c1.5-.5 2.9-1.2 4.2-2.1a2 2 0 0 1-1.7-1 5.7 5.7 0 0 0 3.5-3.3c.5-.3 5.1 2.8 7.8 3.7zM230 70.2c-.3-1.8-1-3.6-2.1-5a1 1 0 0 1-.3-.7l.2-.4c.6-.7 1-1.5 1.3-2.3.3-1 .4-2.1 1.2-2.7-1.8.1-3.6.5-5.2 1.3-.9.4-1.9 1.1-2.2 2.1-.2-.6-.6-1-1-1.4a15.6 15.6 0 0 0-9.9-4c.2-.6.6-1.2 1-1.6-.3-.3-.7-.3-1.1-.4-1.5-.3-3-.5-4.5-.4-1.5.1-3 .7-4 1.9l-.6.7c-.7.8-1.8 1.1-2.7 1.7-1.5 1-2.3 2.8-3 4.5-.1.3-.3.7-.3 1.1 0 .5.2 1 .4 1.4a11 11 0 0 0 5.8 4.8c.2.1.4.1.5.3l.3.5c.4 1.1 1.7 1.6 2.8 1.8l3.5.1a4 4 0 0 0-1-1.8c.9.3 1.9.4 2.9.2.3-.1.7-.2 1-.1l.5.3c.5.4 1.1.9 1.7 1l1-.2c1.5-.5 2.9-1.2 4.2-2.1a2 2 0 0 1-1.7-1 5.7 5.7 0 0 0 3.5-3.3c.5-.3 5.1 2.8 7.8 3.7zM180.7 185.3c-.3-1.9-1.1-3.6-2.2-5.1a1 1 0 0 1-.3-.7l.2-.4a7 7 0 0 0 1.3-2.4c.3-1 .4-2.1 1.2-2.7-1.8.1-3.7.6-5.3 1.4-.9.5-1.9 1.1-2.2 2.2a3 3 0 0 0-1.1-1.4 17 17 0 0 0-10.2-4c.2-.6.6-1.2 1-1.7-.3-.3-.8-.3-1.2-.4-1.5-.3-3-.5-4.6-.3-1.5.2-3 .8-4 2l-.6.7c-.7.8-1.8 1.2-2.7 1.8a10.3 10.3 0 0 0-3 4.6c-.1.3-.3.7-.3 1.1 0 .5.2 1 .5 1.4 1.3 2.3 3.5 4 6 4.8l.6.3.3.5c.5 1.1 1.7 1.7 2.9 1.8h3.6c-.2-.7-.6-1.3-1.1-1.9.9.3 2 .4 2.9.2.3-.1.7-.2 1-.1l.6.3c.5.4 1.1.9 1.8.9l1-.2a15 15 0 0 0 4.3-2.3 2 2 0 0 1-1.7-1 6.7 6.7 0 0 0 3.6-3.4c.1 0 4.9 3.1 7.7 4zM150.7 142.3c-.3-1.9-1.1-3.6-2.2-5.1a1 1 0 0 1-.3-.7l.2-.4a7 7 0 0 0 1.3-2.4c.3-1 .4-2.1 1.2-2.7-1.8.1-3.7.6-5.3 1.4-.9.5-1.9 1.1-2.2 2.2a3 3 0 0 0-1.1-1.4 17 17 0 0 0-10.2-4c.2-.6.6-1.2 1-1.7-.3-.3-.8-.3-1.2-.4-1.5-.3-3-.5-4.6-.3-1.5.2-3 .8-4 2l-.6.7c-.7.8-1.8 1.2-2.7 1.8a10.3 10.3 0 0 0-3 4.6c-.1.3-.3.7-.3 1.1 0 .5.2 1 .5 1.4 1.3 2.3 3.5 4 6 4.8l.6.3.3.5c.5 1.1 1.7 1.7 2.9 1.8h3.6c-.2-.7-.6-1.3-1.1-1.9.9.3 2 .4 2.9.2.3-.1.7-.2 1-.1l.6.3c.5.4 1.1.9 1.8.9l1-.2a15 15 0 0 0 4.3-2.3 2 2 0 0 1-1.7-1 6.7 6.7 0 0 0 3.6-3.4c.1 0 4.9 3.1 7.7 4zM167.7 215.2a6 6 0 0 0-1.3-2.9.8.8 0 0 1-.2-.4l.1-.2c.3-.4.6-.9.7-1.4.2-.6.2-1.2.7-1.6-1.1.1-2.1.3-3 .8-.5.3-1.1.6-1.2 1.2l-.6-.8a9.6 9.6 0 0 0-5.8-2.3c.1-.4.3-.7.6-.9l-.7-.2c-.9-.2-1.7-.3-2.6-.2-.9.1-1.7.4-2.3 1.1l-.3.4c-.4.5-1.1.7-1.6 1-.9.6-1.3 1.7-1.7 2.6l-.2.6c0 .3.1.6.3.8.8 1.3 2 2.3 3.4 2.8l.3.2.2.3c.3.6 1 .9 1.7 1h2c-.1-.4-.3-.8-.6-1.1.5.2 1.1.2 1.7.1l.6-.1.3.2c.3.2.6.5 1 .5l.6-.1c.9-.3 1.7-.7 2.5-1.3-.4 0-.8-.2-1-.6.9-.3 1.7-1.1 2-2 .1.2 2.9 1.9 4.4 2.5z"/>
    <path class="st5" d="M285.7 132.4c-.3-1.8-1.1-3.5-2.2-5a1 1 0 0 1-.3-.7l.2-.4a7 7 0 0 0 1.3-2.4c.3-1 .4-2.1 1.2-2.7-1.8.1-3.6.6-5.2 1.4-.9.5-1.9 1.1-2.1 2.1-.2-.6-.6-1-1-1.4a15.7 15.7 0 0 0-9.9-3.9c.2-.6.5-1.2 1-1.6l-1.1-.4c-1.5-.3-3-.5-4.5-.3a6 6 0 0 0-3.9 1.9l-.5.7c-.7.8-1.8 1.1-2.7 1.8-1.5 1.1-2.2 2.8-2.9 4.5-.1.3-.3.7-.3 1.1 0 .5.2 1 .5 1.4 1.3 2.2 3.4 3.9 5.8 4.7l.6.3.3.5c.5 1.1 1.7 1.6 2.8 1.7h3.5c-.2-.7-.6-1.3-1.1-1.8.9.3 1.9.4 2.9.2.3-.1.7-.2 1-.1l.5.3c.5.4 1.1.9 1.7.9l1-.2c1.5-.5 2.9-1.3 4.2-2.2a2 2 0 0 1-1.7-1 5.9 5.9 0 0 0 3.5-3.4c.1.1 4.7 3.1 7.4 4zM69.7 145.4c-.3-1.8-1.1-3.5-2.2-5a1 1 0 0 1-.3-.7l.2-.4a7 7 0 0 0 1.3-2.4c.3-1 .4-2.1 1.2-2.7-1.8.1-3.6.6-5.2 1.4-.9.5-1.9 1.1-2.1 2.1-.2-.6-.6-1-1-1.4a15.7 15.7 0 0 0-9.9-3.9c.2-.6.5-1.2 1-1.6l-1.1-.4c-1.5-.3-3-.5-4.5-.3a6 6 0 0 0-3.9 1.9l-.5.7c-.7.8-1.8 1.1-2.7 1.8-1.5 1.1-2.2 2.8-2.9 4.5-.1.3-.3.7-.3 1.1 0 .5.2 1 .5 1.4 1.3 2.2 3.4 3.9 5.8 4.7l.6.3.3.5c.5 1.1 1.7 1.6 2.8 1.7h3.5c-.2-.7-.6-1.3-1.1-1.8.9.3 1.9.4 2.9.2.3-.1.7-.2 1-.1l.5.3c.5.4 1.1.9 1.7.9l1-.2c1.5-.5 2.9-1.3 4.2-2.2a2 2 0 0 1-1.7-1 5.9 5.9 0 0 0 3.5-3.4c.1.1 4.7 3.1 7.4 4z"/>
    <path class="st1" d="M282.8 89a8 8 0 0 0-1.3-3.2.8.8 0 0 1-.2-.4l.1-.2c.4-.4.7-.9.8-1.5.2-.6.3-1.3.8-1.7-1.1 0-2.3.3-3.3.8-.6.3-1.2.7-1.4 1.3l-.6-.9a10 10 0 0 0-6.2-2.5c.1-.4.3-.7.6-1-.2-.2-.5-.2-.7-.3-.9-.2-1.9-.3-2.8-.2a4 4 0 0 0-2.5 1.2l-.4.4c-.5.5-1.1.7-1.7 1.1-.9.7-1.4 1.8-1.9 2.8l-.2.7.3.9a6.6 6.6 0 0 0 3.6 3l.3.2.2.3c.3.7 1 1 1.8 1.1l2.2.1-.6-1.2c.6.2 1.2.2 1.8.1h.6l.3.2c.3.3.7.6 1.1.6l.6-.1c.9-.3 1.8-.8 2.7-1.3-.4 0-.9-.3-1-.7 1-.3 1.8-1.1 2.2-2.1.2 0 3.1 1.9 4.8 2.5zM235.9 111.4a10 10 0 0 0-1.8-4.4c-.1-.2-.3-.4-.2-.6l.2-.3c.5-.6.9-1.3 1.1-2.1.3-.8.4-1.8 1.1-2.3-1.6.1-3.1.4-4.5 1.1-.8.4-1.6.9-1.9 1.8-.1-.5-.5-.9-.9-1.2a13.7 13.7 0 0 0-8.6-3.5c.2-.5.5-1 .9-1.4a3 3 0 0 0-1-.4c-1.3-.3-2.6-.5-3.9-.3-1.3.1-2.6.6-3.5 1.6l-.5.6c-.6.7-1.6 1-2.4 1.5-1.3.9-2 2.4-2.6 3.9l-.3.9c0 .4.2.8.4 1.2a9.4 9.4 0 0 0 5 4.2c.2.1.4.1.5.3l.2.5c.4.9 1.4 1.4 2.5 1.6l3 .1c-.2-.6-.5-1.2-.9-1.6.8.3 1.7.3 2.5.2l.9-.1c.2 0 .3.2.5.3.5.4.9.8 1.5.8l.9-.2a13 13 0 0 0 3.7-1.9c-.6 0-1.2-.3-1.4-.9a5.2 5.2 0 0 0 3.1-2.9s4 2.7 6.4 3.5zM389.3 115.9c-.2-.9-.5-1.8-1.1-2.5-.1-.1-.2-.2-.1-.3l.1-.2c.3-.3.5-.8.6-1.2.1-.5.2-1 .6-1.3a6 6 0 0 0-2.6.7c-.5.2-.9.6-1.1 1l-.5-.7a7.5 7.5 0 0 0-4.9-1.9l.5-.8-.6-.2-2.2-.2c-.7.1-1.5.4-2 1l-.3.3c-.4.4-.9.6-1.3.9-.7.5-1.1 1.4-1.4 2.3l-.1.5.2.7c.6 1.1 1.7 2 2.9 2.4l.3.1.1.3c.2.5.8.8 1.4.9h1.7l-.5-.9c.5.2 1 .2 1.4.1h.5l.3.1c.3.2.5.4.9.5l.5-.1c.7-.3 1.5-.6 2.1-1.1-.3 0-.7-.2-.8-.5.8-.3 1.4-.9 1.7-1.7.1-.2 2.4 1.3 3.7 1.8z"/>
    <path class="st2" d="M246.6 181a4 4 0 0 0-.8-1.9l-.1-.3.1-.1.5-.9c.1-.4.2-.8.5-1-.7 0-1.4.2-2 .5-.4.2-.7.4-.8.8l-.4-.5a6.3 6.3 0 0 0-3.9-1.5c.1-.2.2-.5.4-.6l-.4-.2c-.6-.1-1.2-.2-1.7-.1-.6.1-1.2.3-1.5.7l-.2.3-1 .7c-.6.4-.9 1.1-1.1 1.8l-.1.4.2.5c.5.9 1.3 1.5 2.3 1.8l.2.1.1.2c.2.4.7.6 1.1.7h1.4l-.4-.7 1.1.1c.1 0 .3-.1.4 0l.2.1.7.4.4-.1a5 5 0 0 0 1.6-.9c-.3 0-.5-.1-.7-.4.6-.2 1.1-.7 1.4-1.3-.4-.1 1.4 1.1 2.5 1.4z"/>
    <path class="st1" d="M185.9 18.3a7.3 7.3 0 0 0-1.5-3.5.8.8 0 0 1-.2-.5l.2-.3c.4-.5.7-1 .9-1.6.2-.7.3-1.4.9-1.9-1.3 0-2.5.4-3.7.9-.6.3-1.3.8-1.5 1.5-.1-.4-.4-.7-.7-1a11.1 11.1 0 0 0-6.9-2.8c.1-.4.4-.8.7-1.1-.2-.2-.5-.2-.8-.3-1-.2-2.1-.4-3.1-.3-1 .1-2.1.5-2.8 1.3l-.4.5c-.5.5-1.3.8-1.9 1.2a7.4 7.4 0 0 0-2.3 3.8c0 .3.1.7.3 1a7.6 7.6 0 0 0 4.1 3.4l.4.2.2.4c.3.8 1.2 1.2 2 1.3l2.4.1c-.1-.5-.4-.9-.7-1.3.6.2 1.3.3 2 .1l.7-.1.4.2c.4.3.7.6 1.2.7l.7-.1c1.1-.3 2.1-.9 3-1.5-.5 0-1-.3-1.2-.7 1.1-.4 2-1.2 2.5-2.3 0-.1 3.2 2 5.1 2.7z"/>
    <path class="st2" d="M200.8 44.9a5 5 0 0 0-.8-2l-.1-.3.1-.1.5-.9c.1-.4.2-.8.5-1.1-.7 0-1.4.2-2.1.5-.4.2-.7.4-.9.8a2 2 0 0 0-.4-.6 6.5 6.5 0 0 0-4-1.6c.1-.2.2-.5.4-.6l-.5-.2-1.8-.2a3 3 0 0 0-1.6.7l-.2.3-1.1.7c-.6.4-.9 1.1-1.2 1.8l-.1.4.2.6A4 4 0 0 0 190 45l.2.1.1.2c.2.4.7.7 1.1.7h1.4l-.4-.7c.4.1.8.2 1.1.1.1 0 .3-.1.4 0l.2.1c.2.2.4.4.7.4l.4-.1c.6-.2 1.2-.5 1.7-.9a.8.8 0 0 1-.7-.4c.6-.2 1.2-.7 1.4-1.3.2.1 2.1 1.3 3.2 1.7z"/>
    <path class="st3" d="M193.6 230.2a7.1 7.1 0 0 0-1.3-3.1.8.8 0 0 1-.2-.4l.1-.2c.4-.4.6-.9.8-1.5.2-.6.2-1.3.7-1.6-1.1.1-2.2.3-3.2.8-.6.3-1.1.7-1.3 1.3l-.6-.8a10 10 0 0 0-6.1-2.4c.1-.4.3-.7.6-1-.2-.2-.5-.2-.7-.2-.9-.2-1.8-.3-2.7-.2-.9.1-1.8.5-2.4 1.2l-.3.4c-.4.5-1.1.7-1.6 1.1a6 6 0 0 0-1.8 2.8l-.2.7c0 .3.1.6.3.8a6.5 6.5 0 0 0 3.6 2.9l.3.2.2.3c.3.7 1 1 1.7 1.1h2.2c-.1-.4-.3-.8-.7-1.1.6.2 1.2.2 1.8.1l.6-.1.3.2c.3.2.7.5 1.1.6l.6-.1c.9-.3 1.8-.8 2.6-1.4-.4 0-.9-.2-1-.6 1-.3 1.8-1.1 2.1-2.1 0-.1 2.9 1.8 4.5 2.3z"/>
    <path class="st4" d="M217.6 199.7a7.1 7.1 0 0 0-1.3-3.1.8.8 0 0 1-.2-.4l.1-.2c.4-.4.6-.9.8-1.5.2-.6.2-1.3.7-1.6-1.1.1-2.2.3-3.2.8-.6.3-1.1.7-1.3 1.3l-.6-.8a10 10 0 0 0-6.1-2.4c.1-.4.3-.7.6-1-.2-.2-.5-.2-.7-.2-.9-.2-1.8-.3-2.7-.2-.9.1-1.8.5-2.4 1.2l-.3.4c-.4.5-1.1.7-1.6 1.1a6 6 0 0 0-1.8 2.8l-.2.7c0 .3.1.6.3.8a6.5 6.5 0 0 0 3.6 2.9l.3.2.2.3c.3.7 1 1 1.7 1.1h2.2c-.1-.4-.3-.8-.7-1.1.6.2 1.2.2 1.8.1l.6-.1.3.2c.3.2.7.5 1.1.6l.6-.1c.9-.3 1.8-.8 2.6-1.4-.4 0-.9-.2-1-.6 1-.3 1.8-1.1 2.1-2.1 0-.1 2.8 1.8 4.5 2.3z"/>
    <path class="st3" d="M26.1 167.6a8.8 8.8 0 0 0-1.7-4c-.1-.2-.3-.4-.2-.6l.2-.3c.5-.5.8-1.2 1-1.9.2-.8.3-1.6.9-2.1a10 10 0 0 0-4.1 1.1c-.7.4-1.5.9-1.7 1.7-.1-.4-.5-.8-.8-1.1-2.2-1.9-5-3-7.8-3.1.2-.5.4-.9.8-1.3l-.9-.3c-1.2-.2-2.4-.4-3.5-.3-1.2.1-2.4.6-3.1 1.5l-.4.5c-.6.6-1.4.9-2.1 1.4-1.2.8-1.8 2.2-2.3 3.6l-.2.8c0 .4.2.8.4 1.1a8 8 0 0 0 4.6 3.7l.4.2.2.4c.4.8 1.3 1.3 2.2 1.4h2.8c-.2-.5-.4-1-.8-1.4.7.2 1.5.3 2.3.1l.8-.1.4.2c.4.3.8.7 1.4.7l.8-.2c1.2-.4 2.3-1 3.3-1.7-.5 0-1.1-.3-1.3-.8a4.7 4.7 0 0 0 2.8-2.7c-.3.4 3.4 2.8 5.6 3.5z"/>
    <path class="st4" d="M238.4 153.2a8.8 8.8 0 0 0-1.7-4c-.1-.2-.3-.4-.2-.6l.2-.3c.5-.5.8-1.2 1-1.9.2-.8.3-1.6.9-2.1a10 10 0 0 0-4.1 1.1c-.7.4-1.5.9-1.7 1.7-.1-.4-.5-.8-.8-1.1-2.2-1.9-5-3-7.8-3.1.2-.5.4-.9.8-1.3l-.9-.3c-1.2-.2-2.4-.4-3.5-.3-1.2.1-2.4.6-3.1 1.5l-.4.5c-.6.6-1.4.9-2.1 1.4-1.2.8-1.8 2.2-2.3 3.6l-.2.8c0 .4.2.8.4 1.1a8 8 0 0 0 4.6 3.7l.4.2.2.4c.4.8 1.3 1.3 2.2 1.4h2.8c-.2-.5-.4-1-.8-1.4.7.2 1.5.3 2.3.1l.8-.1.4.2c.4.3.8.7 1.4.7l.8-.2c1.2-.4 2.3-1 3.3-1.7-.5 0-1.1-.3-1.3-.8a4.7 4.7 0 0 0 2.8-2.7c-.2.4 3.4 2.8 5.6 3.5zM144.4 233.2a8.8 8.8 0 0 0-1.7-4c-.1-.2-.3-.4-.2-.6l.2-.3c.5-.5.8-1.2 1-1.9.2-.8.3-1.6.9-2.1a10 10 0 0 0-4.1 1.1c-.7.4-1.5.9-1.7 1.7-.1-.4-.5-.8-.8-1.1-2.2-1.9-5-3-7.8-3.1.2-.5.4-.9.8-1.3l-.9-.3c-1.2-.2-2.4-.4-3.5-.3-1.2.1-2.4.6-3.1 1.5l-.4.5c-.6.6-1.4.9-2.1 1.4-1.2.8-1.8 2.2-2.3 3.6l-.2.8c0 .4.2.8.4 1.1a8 8 0 0 0 4.6 3.7l.4.2.2.4c.4.8 1.3 1.3 2.2 1.4h2.8c-.2-.5-.4-1-.8-1.4.7.2 1.5.3 2.3.1l.8-.1.4.2c.4.3.8.7 1.4.7l.8-.2c1.2-.4 2.3-1 3.3-1.7-.5 0-1.1-.3-1.3-.8a4.7 4.7 0 0 0 2.8-2.7c-.2.4 3.4 2.8 5.6 3.5zM113.4 56.2a8.8 8.8 0 0 0-1.7-4c-.1-.2-.3-.4-.2-.6l.2-.3c.5-.5.8-1.2 1-1.9.2-.8.3-1.6.9-2.1a10 10 0 0 0-4.1 1.1c-.7.4-1.5.9-1.7 1.7-.1-.4-.5-.8-.8-1.1-2.2-1.9-5-3-7.8-3.1.2-.5.4-.9.8-1.3l-.9-.3c-1.2-.2-2.4-.4-3.5-.3-1.2.1-2.4.6-3.1 1.5l-.4.5c-.6.6-1.4.9-2.1 1.4-1.2.8-1.8 2.2-2.3 3.6l-.2.8c0 .4.2.8.4 1.1a8 8 0 0 0 4.6 3.7l.4.2.2.4c.4.8 1.3 1.3 2.2 1.4h2.8c-.2-.5-.4-1-.8-1.4.7.2 1.5.3 2.3.1l.8-.1.4.2c.4.3.8.7 1.4.7l.8-.2c1.2-.4 2.3-1 3.3-1.7-.5 0-1.1-.3-1.3-.8a4.7 4.7 0 0 0 2.8-2.7c-.2.4 3.4 2.8 5.6 3.5z"/>
    <path class="st5" d="M325.8 118.2a7.8 7.8 0 0 0-1.6-3.6.8.8 0 0 1-.2-.5l.2-.3c.4-.5.7-1.1.9-1.7.2-.7.3-1.5.9-1.9-1.3.1-2.6.4-3.8 1-.7.3-1.3.8-1.5 1.5-.1-.4-.4-.7-.8-1a12 12 0 0 0-7.2-2.8c.1-.4.4-.8.7-1.2-.2-.2-.5-.2-.8-.3-1.1-.2-2.1-.4-3.2-.2a4 4 0 0 0-2.8 1.4l-.4.5c-.5.6-1.3.8-1.9 1.3-1.1.8-1.6 2-2.1 3.3l-.2.8c0 .4.2.7.3 1a7.8 7.8 0 0 0 4.2 3.4l.4.2.2.4c.3.8 1.2 1.2 2 1.3h2.5c-.1-.5-.4-1-.8-1.3.7.2 1.4.3 2.1.1l.7-.1.4.2c.4.3.8.6 1.2.7l.7-.1c1.1-.4 2.1-.9 3-1.6-.5 0-1-.3-1.2-.7a4.2 4.2 0 0 0 2.5-2.4c.2-.2 3.6 2 5.6 2.6z"/>
    <path class="st4" d="M327.6 163.7a7.1 7.1 0 0 0-1.3-3.1.8.8 0 0 1-.2-.4l.1-.2c.4-.4.6-.9.8-1.5.2-.6.2-1.3.7-1.6-1.1.1-2.2.3-3.2.8-.6.3-1.1.7-1.3 1.3l-.6-.8a10 10 0 0 0-6.1-2.4c.1-.4.3-.7.6-1-.2-.2-.5-.2-.7-.2-.9-.2-1.8-.3-2.7-.2-.9.1-1.8.5-2.4 1.2l-.3.4c-.4.5-1.1.7-1.6 1.1a6 6 0 0 0-1.8 2.8l-.2.7c0 .3.1.6.3.8a6.5 6.5 0 0 0 3.6 2.9l.3.2.2.3c.3.7 1 1 1.7 1.1h2.2c-.1-.4-.3-.8-.7-1.1.6.2 1.2.2 1.8.1l.6-.1.3.2c.3.2.7.5 1.1.6l.6-.1c.9-.3 1.8-.8 2.6-1.4-.4 0-.9-.2-1-.6 1-.3 1.8-1.1 2.1-2.1 0-.1 2.8 1.8 4.5 2.3z"/>
    <path d="M293.4 165.2a8.8 8.8 0 0 0-1.7-4c-.1-.2-.3-.4-.2-.6l.2-.3c.5-.5.8-1.2 1-1.9.2-.8.3-1.6.9-2.1a10 10 0 0 0-4.1 1.1c-.7.4-1.5.9-1.7 1.7-.1-.4-.5-.8-.8-1.1-2.2-1.9-5-3-7.8-3.1.2-.5.4-.9.8-1.3l-.9-.3c-1.2-.2-2.4-.4-3.5-.3-1.2.1-2.4.6-3.1 1.5l-.4.5c-.6.6-1.4.9-2.1 1.4-1.2.8-1.8 2.2-2.3 3.6l-.2.8c0 .4.2.8.4 1.1a8 8 0 0 0 4.6 3.7l.4.2.2.4c.4.8 1.3 1.3 2.2 1.4h2.8c-.2-.5-.4-1-.8-1.4.7.2 1.5.3 2.3.1l.8-.1.4.2c.4.3.8.7 1.4.7l.8-.2c1.2-.4 2.3-1 3.3-1.7-.5 0-1.1-.3-1.3-.8a4.7 4.7 0 0 0 2.8-2.7c-.2.4 3.4 2.8 5.6 3.5z" opacity=".7" fill="#2667b9"/>
    <path class="st3" d="M212.1 115.8a5 5 0 0 0-1.1-2.5c-.1-.1-.2-.2-.1-.3l.1-.2c.3-.3.5-.7.6-1.2.1-.5.2-1 .6-1.3-.9 0-1.8.3-2.5.7-.5.2-.9.5-1 1l-.5-.7a7.9 7.9 0 0 0-4.9-1.9l.5-.8-.6-.2-2.2-.2c-.7.1-1.5.4-1.9.9l-.3.3c-.4.4-.9.6-1.3.9-.7.5-1.1 1.4-1.4 2.2l-.1.5.2.7a5.1 5.1 0 0 0 2.9 2.3l.3.1.1.3c.2.5.8.8 1.4.9h1.7l-.5-.9c.5.2.9.2 1.4.1h.5l.3.1.8.5.5-.1c.7-.3 1.4-.6 2.1-1.1-.3 0-.7-.2-.8-.5a3 3 0 0 0 1.7-1.6c-.2.1 2.1 1.5 3.5 2z"/>
  </g>
</svg>
